<svg id="Capa_1" data-name="Capa 1" xmlns="http://www.w3.org/2000/svg" viewBox="0 0 564.72 551.2"><path d="M540,359.21c.7,5.27,2,9.64,1.7,13.87a229.76,229.76,0,0,1-8.83,46.74c-13.56,45.52-38,84.16-73.57,115.6-42.34,37.38-92,57.58-148.2,61.24-42.07,2.74-82.24-5.48-120.42-23.54a253.38,253.38,0,0,1-55.1-35.81c-2.56-2.15-3.94-3.87-1.21-7a16.06,16.06,0,0,0,3.12-6.71c3-12.76,5.76-25.56,8.49-38.37.67-3.1.64-6.35,1.41-9.42.37-1.46,1.58-3.34,2.88-3.84,5.51-2.15,11.16-4,16.84-5.66,4-1.18,8.1-1.73,12.06-2.9,15.12-4.45,30.18-9.09,45.29-13.57,13.65-4,27.35-7.91,41-12,1.38-.41,3.2-1.91,3.4-3.14.37-2.32-.28-4.8-.52-7.44-1.35.29-2.28.43-3.18.69q-59,17.16-117.88,34.46c-1.32.39-2.77,2.47-3.05,4-2.56,13.43-4.49,27-7.35,40.36-2.4,11.22-8.45,20.72-16.85,28.51-13.9,12.88-31.09,17.91-49.42,18.63-15.34.61-28.78-5-38.92-17-2.74-3.24-4.78-7.06-7.15-10.62,4.14,16.47,13.94,27.88,30,33.73,17.39,6.34,33.85,1.86,50.06-4.45a55.81,55.81,0,0,0,24-18.13c77.95,63.72,164.69,82.77,258.73,46.12S532.35,473.93,546.54,374.31c4.76,3.92,10.05,6.4,16.1,5.29a70.37,70.37,0,0,0,14.71-4.22c9.66-4.12,13.92-16.58,8.87-25.83-1.21,12.16-8.84,17.48-19.55,19.64-1.22.24-2.39.7-3.6,1-10.58,2.57-20.48-3.1-23.7-13.57-.67-2.19-1.33-4.38-2-6.77-8.75,2.56-17.09,5-25.44,7.45Q454.7,373.85,397.5,390.37c-2.12.61-3,1.54-3.39,3.9-1.78,12.16-3.51,24.35-5.89,36.41A59.87,59.87,0,0,1,367,466.29c-11.65,9.54-25.61,13.47-40.1,15.61-18.77,2.77-42.07-6-51.17-26.71a25,25,0,0,0-1.82-2.93,6.08,6.08,0,0,0,.08,3.43c5.7,21.25,25.05,36.51,47.12,36.09,8.31-.16,16.73-1.86,24.83-3.92,21.92-5.6,37-19.42,43.17-41.11,3.95-13.85,5.41-28.43,7.83-42.71.39-2.29,1-3.67,3.46-4.37,13-3.72,26-7.65,39-11.46,6.76-2,13.57-3.77,20.32-5.77,4.5-1.33,8.9-3,13.4-4.27,13.65-3.93,27.33-7.76,41-11.62Z" transform="translate(-23.64 -100.53)"/><path d="M47.32,346.12c2-11.25,4-22.5,5.9-33.76C59.84,273,74.58,237,98.45,204.87c33.85-45.53,78.15-76.27,132.75-91.28,50.77-14,101.29-11.77,150.84,6.5,27.21,10,52.28,24,73.89,43.46,11.36,10.21,21.48,21.8,32.15,32.79,2,2.08,3.67,4.81,7.47,3.94C453.79,140.18,358.23,82,244.48,106.1,124.06,131.61,46.72,238.24,47.32,346.12Z" transform="translate(-23.64 -100.53)"/><path d="M429.89,606.67c-2.49-7.24-4.79-14.17-7.27-21-1-2.68-1.56-5,1.64-6.57.39-.19.34-1.26.58-2.27-6.32,2.39-11.76,4.83-11.09,12.62a15.77,15.77,0,0,1-.57,4.1c-1,5.55-2,11.11-3.25,17.81-4.78-6.12-8.82-11-12.5-16.14-1.88-2.62-3.54-3.93-6.71-2.07a67.57,67.57,0,0,1-6.87,3.1l.56,1.3,4.67-.32c.61,7.61,1.1,15,1.83,22.44.32,3.21-.09,5.66-3.65,6.69-.62.18-1,1.15-1.51,1.76l.65.84c4.47-1.91,9.56-2.44,13.11-6.72l-5.39.65-2-23c5.41,6.77,9.93,12.51,14.57,18.17a11,11,0,0,0,2.86,1.82,11.78,11.78,0,0,0,1.76-3c1.07-4.71,2-9.44,2.89-14.18.78-4.19,1.43-8.4,2.14-12.6,2.32,4.76,3.6,9.55,5.25,14.2,1.3,3.69,2.19,7-2.24,9.19-.07,0,.07.49.11.75,4.63-.15,14.54-5.76,15.32-8.94Z" transform="translate(-23.64 -100.53)"/><path d="M399.3,345.67l1.27.85c.93-1.24,2.33-2.36,2.69-3.75a64.53,64.53,0,0,0,1.55-9.39c1.67-15.38,3.35-30.75,4.84-46.14.87-8.93,1.57-17.88,2-26.83.13-2.72-.86-5.49-1.33-8.23l-1,.17Z" transform="translate(-23.64 -100.53)"/><path d="M541.88,310.05l1.47-.64c-1.72-8.88-4.33-17.71-4.9-26.67s1-18-1.84-26.8c.63,21.55-3.9,41.17-20.41,56.69,12.81-2.17,13-2.31,19.83-16.53C539.33,300.14,536.06,307.28,541.88,310.05Z" transform="translate(-23.64 -100.53)"/><path d="M160.06,321.66l-.72.4-10.2,95.7c5.12-.63,4.46-4.53,4.77-7.35,2.6-23.9,5.23-47.81,7.38-71.75C161.79,333.07,160.52,327.33,160.06,321.66Z" transform="translate(-23.64 -100.53)"/><path d="M359.37,633.41l-1.17,0q-2.67-7.11-5.34-14.23c-1-2.75-2.69-4.78-5.88-3.64s-4.79,3.67-5.92,6.43l.87.66,4-3.14c2.5,5.91,4.5,11.48,7.17,16.71,1.85,3.65,1.15,6.14-1.66,8.67-1.82,1.63-3.42,3.18-6.12,1.69a3.34,3.34,0,0,0-2.8-.17,24.35,24.35,0,0,0-3.6,3.24c1.34.75,2.91,2.37,4,2.09,2.83-.77,6-1.78,8-3.73,9.68-9.17,13.82-21.38,17.36-33.78.27-1-1.14-2.39-1.77-3.6-1.27.83-3.22,1.39-3.66,2.54-.82,2.13-.69,4.61-1.08,6.92C361,624.51,360.17,629,359.37,633.41Z" transform="translate(-23.64 -100.53)"/><path d="M286,323.16c1.83,23.12-2.37,44.24-20.34,61.69,2.84-.82,4.78-1.57,6.79-1.93a13,13,0,0,0,10.84-9.63c2.15-7.36,4.29-14.83,5.29-22.4C289.76,341.62,289.36,332.23,286,323.16Z" transform="translate(-23.64 -100.53)"/><path d="M475.24,576.69l-1.38.09c-4.59-9.59-9.17-19.19-14.05-29.41L452.53,557l.76.73,3.92-1.63c.78,1.53,1.58,3,2.24,4.43,2.94,6.55,5.7,13.19,8.86,19.62.65,1.33,2.91,2.86,4.21,2.69,4.26-.55,7.4-7.87,5.46-12.25C477,572.67,476.13,574.68,475.24,576.69Z" transform="translate(-23.64 -100.53)"/><path d="M573.31,435.9c-.88.14-1.73,0-2.17.39a33,33,0,0,0-4.24,4.2c-.21.27.74,1.48,1.15,2.26,1.71-.94,4.45-1.52,4.93-2.88,1.51-4.32,2.94-8.93,2.95-13.43,0-5.48-5.11-7.26-9.45-3.76-1.82,1.47-3.35,3.37-5.32,4.58-1.07.65-3.29.84-4.07.17a5.24,5.24,0,0,1-1.44-4.26c.17-.94,2.34-1.35,3.25-2.34a13.27,13.27,0,0,0,2.37-4c.16-.39-1-1.8-1.13-1.74-1.36.49-3.06.9-3.85,1.94a15.53,15.53,0,0,0-2.89,12.54c1,5.23,5.19,7,9.56,3.93,1.92-1.33,3.51-3.14,5.43-4.47,2.76-1.89,5.29-.6,5.44,2.73A24.42,24.42,0,0,1,573.31,435.9Z" transform="translate(-23.64 -100.53)"/><path d="M209.11,613.45c-.86,1.48-1.55,2.8-2.34,4.06-2.12,3.39-4.53,6.63-6.29,10.19-.62,1.26-.34,4,.61,4.83,3.22,2.9,11.16,1.34,13.88-2.48l-7.55,1-.6-1.25c2.37-4,4.92-7.89,7.06-12,1.24-2.41,2.61-2.68,4.94-1.83,1.3.47,2.85.22,4.28.29l.1-1.48-6-2.14,2.87-6.11c-1.77-.08-3.69-.62-4-.11-2.72,4.07-6.6,4.6-10.93,4.23a5.68,5.68,0,0,0-.22.91Z" transform="translate(-23.64 -100.53)"/><path d="M478.77,546.73c-1.23-1.91-2.23-3.49-4-6.28-.78,2.57-1.95,4.28-1.55,5.47,1.13,3.4,1.05,6.14-2,8.45-.33.24-.19,1.11-.37,2.39l4.75-3c2.52,5,4.89,9.84,7.33,14.62,1.13,2.23,2.63,3.55,5.29,2,3.65-2.18,5.65-7.66,4.17-12.51l-2.9,6.73-1.29-.11c-2.21-4.1-4.26-8.28-6.68-12.25-1.39-2.3-.89-3.66,1-5.25,1-.84,1.49-2.28,2.21-3.45l-1.21-.69Z" transform="translate(-23.64 -100.53)"/><path d="M312.93,644.11c-.82-1.6-1-2.57-1.59-3A14.61,14.61,0,0,0,307,639c-.44-.12-2,1.83-1.84,2,.85,1.28,1.95,3.13,3.15,3.28,3.2.4,6.76.79,9.65-.27,2.61-.95,5.54-3.42,6.5-5.91,1.35-3.55-1.95-5.56-4.95-7-.62-.3-1.25-.59-1.84-.93-2.48-1.42-5.28-3-3.06-6.34s4.3-1.76,6,.86a1.38,1.38,0,0,0,1,.62c1.28-.15,2.53-.44,3.79-.67-.48-1.13-.67-2.8-1.52-3.26a11.28,11.28,0,0,0-5.1-1.19c-5.42-.07-9.76,2.56-10.51,6.3-1,5.07,3.15,6.3,6.23,8.53,1.66,1.2,2.65,3.33,3.94,5Z" transform="translate(-23.64 -100.53)"/><path d="M345.2,268.55l-1,.21q-2.37,21.78-4.74,43.54c-.31,2.88-.68,5.76-.73,8.65,0,1,.83,2.06,1.28,3.1.82-.92,2-1.7,2.36-2.77a22.63,22.63,0,0,0,.92-5.28c1.1-11,2.43-21.92,3.11-32.91C346.73,278.29,345.66,273.4,345.2,268.55Z" transform="translate(-23.64 -100.53)"/><path d="M203.75,402.56c-20.49-5.44-30.5-19.58-35.77-38.21a78.29,78.29,0,0,0,2,9.31c2.61,10.07,7,19.08,14.47,26.61,4.1,4.16,8.31,6.22,14,3.84C199.84,403.54,201.35,403.26,203.75,402.56Z" transform="translate(-23.64 -100.53)"/><path d="M453.32,330.63c-19.52-5.06-28.87-18.81-34.78-35.9,2.16,11,5.36,21.52,12.67,30.21C439.28,334.51,441.79,335.08,453.32,330.63Z" transform="translate(-23.64 -100.53)"/><path d="M94,340.52c-1.88,17.66-3.73,34.65-5.41,51.65-.12,1.18,1,2.47,1.54,3.71.8-1.22,2.15-2.38,2.31-3.68,1.29-10.68,2.55-21.37,3.44-32.09C96.43,353.74,97.23,347.22,94,340.52Z" transform="translate(-23.64 -100.53)"/><path d="M228.79,636.48l-.73-1c2.91-6,5.83-11.94,8.87-18.16H224.46l-.09.72,4.25,2c-2.38,4.51-4.89,8.76-6.86,13.26-.6,1.36-.38,4.09.58,4.93,3.26,2.88,11,.76,13.65-3.59Z" transform="translate(-23.64 -100.53)"/><path d="M295.27,349.79l-1.25.7c1.91,5,3.34,10.29,5.82,15,4.28,8.16,8.08,8.9,16.5,3.94C305.29,367.14,298.53,360.35,295.27,349.79Z" transform="translate(-23.64 -100.53)"/><path d="M69.44,441.77c-11.56-2.39-12.46-3-23.22-15.38,1.46,7.58,4.52,13.54,10.16,17.95a5.61,5.61,0,0,0,4.22.51C63.24,444.21,65.77,443.09,69.44,441.77Z" transform="translate(-23.64 -100.53)"/><path d="M241.63,608.33l-.07-1.58c-1.51-.73-3.09-2.14-4.52-2-1.26.13-2.35,2-3.51,3.08,1.37,1,2.67,2.68,4.14,2.85C238.89,610.82,240.3,609.18,241.63,608.33Z" transform="translate(-23.64 -100.53)"/><path d="M541.58,344.1c-26.58,7.7-53,15.32-79.35,23-23.23,6.75-46.44,13.57-69.69,20.25-2.58.74-3.21,2.06-3.63,4.61-2.28,13.76-3.94,27.71-7.56,41.14-7.35,27.28-32.79,45.14-61.05,44.13-27.07-1-47.91-24-46.46-51.41.07-1.36.14-2.72.24-4.74-7.38,2.1-14.35,4.06-21.31,6.06q-39.28,11.25-78.55,22.53c-10.76,3.09-21.46,6.41-32.28,9.3-3,.79-3,2.52-3.25,4.81-2,17.32-3.94,34.72-11,50.86C114.71,544,75.29,557.67,48.28,542.52a48,48,0,0,1-19-64.59c8-15.33,21.31-24.08,36.84-29.79,11.15-4.1,22.64-7.24,34-10.7,7.19-2.19,8.09-3.57,6.76-11.88-1.21.89-2.25,1.69-3.31,2.44-12.36,8.59-25.7,11.55-40,6-10-3.86-15.16-12-16-22.34a119.48,119.48,0,0,1,.44-20.27c1.16-13.5,2.51-27,4.2-40.43A69.22,69.22,0,0,1,56,335.36c2.61-6.9,8.36-10.51,15.48-11.72,8.43-1.42,15.92,4.25,16.43,12.87a111.92,111.92,0,0,1-.77,16.95c-1.17,12.25-2.78,24.46-3.86,36.72-1,11.25,4.4,14.86,14.56,9.78,8.7-4.35,14.14-11,15-21.24,1.51-17.22,3.4-34.41,5.38-51.58,1.1-9.59,5-17.61,14.74-21.27,9.46-3.53,18.87,1.38,19.69,11.36.7,8.58-.34,17.36-1.21,26-2.5,25-5.31,50-8,75.07-.18,1.75-.3,3.5-.49,5.7a32.63,32.63,0,0,0,3.54-.58l205-58.8c6.08-1.75,6.88-3.23,5.5-10.55-.86.59-1.63,1.06-2.34,1.61a43.29,43.29,0,0,1-31.53,9c-15.28-1.42-25.35-11.6-25.74-26.93-.25-9.76,1-19.58,1.89-29.35,1.06-11.56,2.21-23.13,3.78-34.63,1.16-8.47,4.25-16.11,12.72-20.13,12-5.7,23.11,1.16,22.55,14.4-.45,10.49-1.85,20.93-2.85,31.39-.68,7.16-1.7,14.3-2,21.47-.37,8.14,3.91,11.32,11.55,8.5,9.86-3.64,16.67-10.11,17.81-21.28q2.73-26.83,5.66-53.64c1.18-10.8,7.14-18.27,16.33-20.82,8.53-2.36,16.48,2.32,18.18,11a30.23,30.23,0,0,1,.39,8.65c-2.54,25-5.21,50.06-7.84,75.09-.82,7.79-1.62,15.59-2.52,24.18,5-1.35,9.33-2.46,13.63-3.69Q457.31,334.44,508,320c6.91-2,13.86-3.85,20.88-5.36,5.33-1.14,10.82-.25,15,3.15,3.19,2.6,5.23,6.61,8.32,10.7,6.45-2.8,14.17-3.46,21.26,2.11a18.89,18.89,0,0,1,7.25,13.08,19.37,19.37,0,0,1-17,21.72C551.56,367,543.51,359,541.58,344.1ZM105.31,469.47c-13.88,4.09-27.13,6.1-38.2,14-4.48,3.21-7.9,7.41-8.3,13.25-.5,7.38,1.59,13.74,8.31,17.67,5.86,3.44,15,2.19,20.94-2.82C100.78,500.86,102.17,485.52,105.31,469.47Zm250-71.5c-12.19,4.2-24.34,5.49-34.77,11.83a35.16,35.16,0,0,0-8.61,7.58c-4.41,5.31-4.11,14,.14,20.63,3.3,5.14,9.55,7.43,16.4,6.18a23.69,23.69,0,0,0,16.19-11.25C351.21,422.67,353.15,410.94,355.33,398Z" transform="translate(-23.64 -100.53)"/><path d="M531.44,261c-.71,16.7-5,32.16-16.59,44.54a42.69,42.69,0,0,1-15,9.93c-8.93,3.59-18.38,5.88-27.65,8.61-17.53,5.18-30.67-2.23-40.91-15.5-10.95-14.2-13.53-30.84-9.84-48.06,5.24-24.46,19.05-42.48,42.93-51.45,31.74-11.92,60.6,5.37,65.91,39.14C531,252.45,531.08,256.76,531.44,261Zm-34.24.15c-.55-3.55-.7-7.07-1.67-10.33C491.85,238.55,480,234,469.24,240.52c-13.22,8.06-19.14,30.75-11,43.85,1.79,2.88,5.39,6,8.51,6.43,10.83,1.5,24.88-2.1,28.17-17C495.87,269.59,496.46,265.35,497.2,261.17Z" transform="translate(-23.64 -100.53)"/><path d="M280.83,335.13a69.48,69.48,0,0,1-10.7,35.41c-4.89,7.88-11.42,13.92-20.33,16.82-9.58,3.13-19.29,5.84-28.93,8.77-17.56,5.34-33.65-5.6-41.18-17.8-14.87-24.08-12.64-48.33,2.13-71.53,11-17.26,27-27.5,47.68-29.35,21.36-1.9,39.58,9.7,47.3,29.68A68.6,68.6,0,0,1,280.83,335.13Zm-33.74-1.52c-.65-4.27-.82-7.62-1.69-10.77-3.49-12.6-15.67-17.26-26.74-10.4-13.55,8.39-18.86,31.91-9.73,44.94a14.81,14.81,0,0,0,8.33,5.39c11.18,2.35,23.33-4.76,26.9-15.52C245.7,342.59,246.25,337.61,247.09,333.61Z" transform="translate(-23.64 -100.53)"/><path d="M540,359.21l-25.91,7.34c-13.67,3.86-27.35,7.69-41,11.62-4.5,1.29-8.9,2.94-13.4,4.27-6.75,2-13.56,3.8-20.32,5.77-13,3.81-26,7.74-39,11.46-2.47.7-3.07,2.08-3.46,4.37-2.42,14.28-3.88,28.86-7.83,42.71-6.18,21.69-21.25,35.51-43.17,41.11-8.1,2.06-16.52,3.76-24.83,3.92-22.07.42-41.42-14.84-47.12-36.09a6.08,6.08,0,0,1-.08-3.43,25,25,0,0,1,1.82,2.93c9.1,20.7,32.4,29.48,51.17,26.71,14.49-2.14,28.45-6.07,40.1-15.61a59.87,59.87,0,0,0,21.26-35.61c2.38-12.06,4.11-24.25,5.89-36.41.35-2.36,1.27-3.29,3.39-3.9q57.21-16.49,114.38-33.08c8.35-2.42,16.69-4.89,25.44-7.45.72,2.39,1.38,4.58,2,6.77,3.22,10.47,13.12,16.14,23.7,13.57,1.21-.29,2.38-.75,3.6-1,10.71-2.16,18.34-7.48,19.55-19.64,5,9.25.79,21.71-8.87,25.83a70.37,70.37,0,0,1-14.71,4.22c-6,1.11-11.34-1.37-16.1-5.29-14.19,99.62-65.12,172.5-159.28,209.19s-180.78,17.6-258.73-46.12a55.81,55.81,0,0,1-24,18.13C88.33,561.82,71.87,566.3,54.48,560c-16-5.85-25.84-17.26-30-33.73,2.37,3.56,4.41,7.38,7.15,10.62,10.14,12,23.58,17.58,38.92,17,18.33-.72,35.52-5.75,49.42-18.63,8.4-7.79,14.45-17.29,16.85-28.51,2.86-13.37,4.79-26.93,7.35-40.36.28-1.51,1.73-3.59,3.05-4q58.89-17.4,117.88-34.46c.9-.26,1.83-.4,3.18-.69.24,2.64.89,5.12.52,7.44-.2,1.23-2,2.73-3.4,3.14-13.63,4.12-27.33,8-41,12-15.11,4.48-30.17,9.12-45.29,13.57-4,1.17-8.1,1.72-12.06,2.9-5.68,1.68-11.33,3.51-16.84,5.66-1.3.5-2.51,2.38-2.88,3.84-.77,3.07-.74,6.32-1.41,9.42-2.73,12.81-5.53,25.61-8.49,38.37a16.06,16.06,0,0,1-3.12,6.71c-2.73,3.17-1.35,4.89,1.21,7a253.38,253.38,0,0,0,55.1,35.81c38.18,18.06,78.35,26.28,120.42,23.54,56.19-3.66,105.86-23.86,148.2-61.24,35.61-31.44,60-70.08,73.57-115.6a229.76,229.76,0,0,0,8.83-46.74C542,368.85,540.68,364.48,540,359.21Z" transform="translate(-23.64 -100.53)"/><path d="M47.32,346.12c-.6-107.88,76.74-214.51,197.16-240C358.23,82,453.79,140.18,495.55,200.28c-3.8.87-5.45-1.86-7.47-3.94-10.67-11-20.79-22.58-32.15-32.79-21.61-19.43-46.68-33.43-73.89-43.46C332.49,101.82,282,99.63,231.2,113.59c-54.6,15-98.9,45.75-132.75,91.28C74.58,237,59.84,273,53.22,312.36,51.33,323.62,49.29,334.87,47.32,346.12Z" transform="translate(-23.64 -100.53)"/><path d="M429.89,606.67l4.88-1.39c-.78,3.18-10.69,8.79-15.32,8.94,0-.26-.18-.71-.11-.75,4.43-2.19,3.54-5.5,2.24-9.19-1.65-4.65-2.93-9.44-5.25-14.2-.71,4.2-1.36,8.41-2.14,12.6-.89,4.74-1.82,9.47-2.89,14.18a11.78,11.78,0,0,1-1.76,3,11,11,0,0,1-2.86-1.82c-4.64-5.66-9.16-11.4-14.57-18.17l2,23,5.39-.65c-3.55,4.28-8.64,4.81-13.11,6.72l-.65-.84c.5-.61.89-1.58,1.51-1.76,3.56-1,4-3.48,3.65-6.69-.73-7.41-1.22-14.83-1.83-22.44l-4.67.32-.56-1.3a67.57,67.57,0,0,0,6.87-3.1c3.17-1.86,4.83-.55,6.71,2.07,3.68,5.14,7.72,10,12.5,16.14,1.23-6.7,2.25-12.26,3.25-17.81a15.77,15.77,0,0,0,.57-4.1c-.67-7.79,4.77-10.23,11.09-12.62-.24,1-.19,2.08-.58,2.27-3.2,1.6-2.61,3.89-1.64,6.57C425.1,592.5,427.4,599.43,429.89,606.67Z" transform="translate(-23.64 -100.53)"/><path d="M157.09,595.6a47,47,0,0,1,3.28,4.22c3.26,5.43.44,10.68-5.88,10.42a23.37,23.37,0,0,1-9.52-2.39c-7.52-3.91-14.75-8.35-22.1-12.58l.38-1.13c.68-.1,1.65-.55,2-.26,3.37,2.79,5.74.93,8.05-1.53l15.07-16.07-3.52-2.15.68-1.34a6.71,6.71,0,0,1,2.55.29c5.49,3.19,10.92,6.48,16.34,9.78a12.18,12.18,0,0,1,2.19,1.87c2.18,2.19,3.53,4.73,2.17,7.82s-4.29,3.64-7.29,3.65A32.78,32.78,0,0,1,157.09,595.6Zm-20.76,3.86.26,1.76c3.62,1.47,7.16,3.29,10.91,4.29,3.21.86,6.3-.41,7.23-3.9,1.21-4.54-2.42-6.48-5.41-8.78-2.64-2-4.42-1.66-6.53.83C140.93,595.85,138.5,597.55,136.33,599.46Zm11-11.5.54,1.62c2.22,1,4.39,2.06,6.66,2.86,3.27,1.15,6.09.34,7.6-2.89s-.66-5.26-3-7.24c-3.11-2.63-4.72-.54-6.7,1.53A48.57,48.57,0,0,1,147.36,588Z" transform="translate(-23.64 -100.53)"/><path d="M550.69,485.47c.18-2.45.36-4.9.57-7.63,2.77,3.42,3.31,8.86.75,12.38-1.16,1.59-3.64,2.22-6.14,3.63a56.2,56.2,0,0,1-.57,6.85c-.55,3.06-1.81,6-5.28,6.71s-6-1.27-7.67-3.86c-4.9-7.56-5.78-15.62-2.13-24,.16-.38.47-.69.65-1.06a5.43,5.43,0,0,0,.25-1.15l-4.82-4.42-3.3,3.61-.9-.4,3.09-12.2,24.29,21.92Zm-15.57-5.6c-4.29,3.91-5.11,7.21-4.08,10.92,1.16,4.13,3.4,7.61,7.62,9.07,1.08.37,3-.36,4-1.24,2-2,2-7.4.13-9.67C540.34,486,537.82,483.08,535.12,479.87Z" transform="translate(-23.64 -100.53)"/><path d="M263.81,620.31c.66-1.93,1.32-3.88,2.06-6.06l-4.45-1.71,0-.85c1.76-.34,3.52-.74,5.29-1s3.8-.5,6.7-.88c-3.52,10.61-6.85,20.67-10.66,32.15l7.91-2.8c-1,3.35-5.47,5.75-10,5.58-3-.11-4.65-1.48-4.36-4.53-3.43.93-6.65,2.3-10,2.58-5.95.5-8.58-3.51-6.46-9.13,2.6-6.85,12.63-13.38,20.51-13.33C261.42,620.32,262.51,620.31,263.81,620.31ZM262,624.67c-4.25-2-7.63-1.31-10.55,1.15-3.16,2.67-5.38,6-5,10.39a4.47,4.47,0,0,0,2.3,3c2.67,1.23,8-1,9.17-3.85C259.43,632,260.62,628.44,262,624.67Z" transform="translate(-23.64 -100.53)"/><path d="M199.54,606.71c-2.3,3.25-4.39,6.24-6.51,9.2-1.21,1.68-2.57,3.26-3.66,5a14.51,14.51,0,0,0-1.13,3.27,30.32,30.32,0,0,0,3.79.43,10.64,10.64,0,0,1,3.51,0c-3.44,2.78-7.39,4-11.51,2.25-1.8-.78-2.95-3.09-5-5.41-1.72,0-5,.64-7.9-.2-2.45-.71-5.53-2.75-6.24-4.9-.62-1.9,1-5.31,2.73-7.07,6.39-6.73,18.06-8,26.53-3.59C195.47,606.45,197.25,606.33,199.54,606.71Zm-8.84,1.5c-3.41-3.6-7-3.29-10.57-1.81-3.91,1.63-7.17,4.26-7.92,8.74-.17,1,1,3.28,1.63,3.31,3.12.15,7,.8,9.22-.74C186.24,615.48,188.18,611.5,190.7,608.21Z" transform="translate(-23.64 -100.53)"/><path d="M547.93,440.46l16.64,12.59,1.19-.59c-.17-2.58-.33-5.16-.5-7.91,3,2.38,4,7.39,2.69,11.62-.93,3-2.68,4.72-5.93,3.71,0,3.54.55,6.83-.18,9.8-.56,2.27-2.38,5.22-4.32,5.89s-5.21-.53-7-2c-7.17-6-8.73-19.38-3.8-27.56C547.51,444.71,547.43,442.9,547.93,440.46Zm1,9.05a9.16,9.16,0,0,0-1.88,10.71c1.66,3.91,4.07,7.39,8.66,8.08,1.1.16,3.43-1.15,3.48-1.9.2-3,.77-6.8-.73-8.94C556.21,454.25,552.31,452.2,548.94,449.51Z" transform="translate(-23.64 -100.53)"/><path d="M399.3,345.67l10.05-93.32,1-.17c.47,2.74,1.46,5.51,1.33,8.23-.44,8.95-1.14,17.9-2,26.83-1.49,15.39-3.17,30.76-4.84,46.14a64.53,64.53,0,0,1-1.55,9.39c-.36,1.39-1.76,2.51-2.69,3.75Z" transform="translate(-23.64 -100.53)"/><path d="M541.88,310.05c-5.82-2.77-2.55-9.91-5.85-13.95-6.84,14.22-7,14.36-19.83,16.53,16.51-15.52,21-35.14,20.41-56.69,2.89,8.82,1.28,17.88,1.84,26.8s3.18,17.79,4.9,26.67Z" transform="translate(-23.64 -100.53)"/><path d="M160.06,321.66c.46,5.67,1.73,11.41,1.23,17-2.15,23.94-4.78,47.85-7.38,71.75-.31,2.82.35,6.72-4.77,7.35l10.2-95.7Z" transform="translate(-23.64 -100.53)"/><path d="M517.32,500.75l13.34,15.92,1.28-.33,1.3-7.39c2.19,3.5,2.2,9.11-.45,12-1.36,1.47-3.85,1.89-6.23,3-.67,2.26-1.2,5.75-2.7,8.74-2.36,4.68-7.05,5-10.46,1.11-6.09-6.9-5.26-21.81,1.39-28C515.87,504.72,516.24,503,517.32,500.75Zm-.91,8.7c-4.27,2.46-4.77,6.08-4.17,9.87.65,4.1,2.56,7.66,6.48,9.51.94.44,3.43-.14,3.61-.75.89-2.87,2.44-6.4,1.48-8.79C522.35,515.65,519,512.76,516.41,509.45Z" transform="translate(-23.64 -100.53)"/><path d="M451.66,568.81c2.54,6.74,4.91,13.06,7.29,19.38l1.33-.05q1.64-3.06,3.28-6.1l1,.46c-.32,3.77-1.34,7.54-4.64,9.85-1.67,1.17-4.43.78-6.69,1.09l-.17-1.1c-1.4,2.32-2.37,5.15-4.32,6.83s-4.89,3-7.16,2.7c-1.73-.25-3.74-3.08-4.46-5.17-3-8.72,2.39-20.53,10.56-24.37C449.08,571.68,450.07,570.26,451.66,568.81ZM448,576.38c-6.36,2.09-8.81,7.93-6.56,14.64.87,2.61,1.82,5.51,5.46,5.07,2.51-.31,5.72-5.5,5-8.18C450.81,584.09,449.37,580.38,448,576.38Z" transform="translate(-23.64 -100.53)"/><path d="M359.37,633.41c.8-4.45,1.64-8.9,2.39-13.36.39-2.31.26-4.79,1.08-6.92.44-1.15,2.39-1.71,3.66-2.54.63,1.21,2,2.65,1.77,3.6-3.54,12.4-7.68,24.61-17.36,33.78-2.05,1.95-5.21,3-8,3.73-1.06.28-2.63-1.34-4-2.09a24.35,24.35,0,0,1,3.6-3.24,3.34,3.34,0,0,1,2.8.17c2.7,1.49,4.3-.06,6.12-1.69,2.81-2.53,3.51-5,1.66-8.67-2.67-5.23-4.67-10.8-7.17-16.71l-4,3.14-.87-.66c1.13-2.76,2.78-5.31,5.92-6.43s4.85.89,5.88,3.64q2.65,7.13,5.34,14.23Z" transform="translate(-23.64 -100.53)"/><path d="M291,621.86c8.8-.2,12.95,5.55,10,13.84-3,8.45-14.22,13-22.3,9a7.78,7.78,0,0,1-4.62-8.81C275.21,627.92,282.27,622.05,291,621.86Zm-10.84,15.87c1.23,1.92,2.17,5.12,3.74,5.47a9.52,9.52,0,0,0,7.28-2c3.5-3,4.37-7.61,3.7-12.1-.26-1.76-1.57-4.15-3-4.71s-4.16.1-5.6,1.18C282.48,628.4,281.19,632.63,280.11,637.73Z" transform="translate(-23.64 -100.53)"/><path d="M286,323.16c3.41,9.07,3.81,18.46,2.58,27.73-1,7.57-3.14,15-5.29,22.4a13,13,0,0,1-10.84,9.63c-2,.36-3.95,1.11-6.79,1.93C283.58,367.4,287.78,346.28,286,323.16Z" transform="translate(-23.64 -100.53)"/><path d="M511.44,536.82c1.07,5.66.13,9.81-2.68,13.55-2.45,3.26-5.61,5.65-9.88,4.82-5-1-7.35-4.86-8.31-9.36-1.38-6.48.05-12.5,5.22-16.94,1.52-1.31,4.64-2.4,6.09-1.69s2.91,4,2.51,5.78c-1.14,5-3.23,9.86-5,14.88C503.81,550.77,504.84,549.93,511.44,536.82Zm-14.69,8.9,1.5.16c.9-3.66,2.11-7.28,2.53-11,.13-1.15-1.91-2.53-3-3.81-1.1,1-2.73,1.91-3.2,3.19C493.12,538.43,494.16,542.29,496.75,545.72Z" transform="translate(-23.64 -100.53)"/><path d="M475.24,576.69c.89-2,1.79-4,2.74-6.15,1.94,4.38-1.2,11.7-5.46,12.25-1.3.17-3.56-1.36-4.21-2.69-3.16-6.43-5.92-13.07-8.86-19.62-.66-1.48-1.46-2.9-2.24-4.43l-3.92,1.63-.76-.73,7.28-9.58c4.88,10.22,9.46,19.82,14.05,29.41Z" transform="translate(-23.64 -100.53)"/><path d="M573.31,435.9a24.42,24.42,0,0,0,.52-4.13c-.15-3.33-2.68-4.62-5.44-2.73-1.92,1.33-3.51,3.14-5.43,4.47-4.37,3-8.61,1.3-9.56-3.93A15.53,15.53,0,0,1,556.29,417c.79-1,2.49-1.45,3.85-1.94.17-.06,1.29,1.35,1.13,1.74a13.27,13.27,0,0,1-2.37,4c-.91,1-3.08,1.4-3.25,2.34a5.24,5.24,0,0,0,1.44,4.26c.78.67,3,.48,4.07-.17,2-1.21,3.5-3.11,5.32-4.58,4.34-3.5,9.46-1.72,9.45,3.76,0,4.5-1.44,9.11-2.95,13.43-.48,1.36-3.22,1.94-4.93,2.88-.41-.78-1.36-2-1.15-2.26a33,33,0,0,1,4.24-4.2C571.58,435.92,572.43,436,573.31,435.9Z" transform="translate(-23.64 -100.53)"/><path d="M209.11,613.45l-4.27-1.86a5.68,5.68,0,0,1,.22-.91c4.33.37,8.21-.16,10.93-4.23.34-.51,2.26,0,4,.11l-2.87,6.11,6,2.14-.1,1.48c-1.43-.07-3,.18-4.28-.29-2.33-.85-3.7-.58-4.94,1.83-2.14,4.12-4.69,8-7.06,12l.6,1.25,7.55-1c-2.72,3.82-10.66,5.38-13.88,2.48-1-.85-1.23-3.57-.61-4.83,1.76-3.56,4.17-6.8,6.29-10.19C207.56,616.25,208.25,614.93,209.11,613.45Z" transform="translate(-23.64 -100.53)"/><path d="M478.77,546.73l4.74-3.92,1.21.69c-.72,1.17-1.21,2.61-2.21,3.45-1.88,1.59-2.38,2.95-1,5.25,2.42,4,4.47,8.15,6.68,12.25l1.29.11,2.9-6.73c1.48,4.85-.52,10.33-4.17,12.51-2.66,1.59-4.16.27-5.29-2-2.44-4.78-4.81-9.58-7.33-14.62l-4.75,3c.18-1.28,0-2.15.37-2.39,3-2.31,3.11-5,2-8.45-.4-1.19.77-2.9,1.55-5.47C476.54,543.24,477.54,544.82,478.77,546.73Z" transform="translate(-23.64 -100.53)"/><path d="M312.93,644.11l5.48-4c-1.29-1.7-2.28-3.83-3.94-5-3.08-2.23-7.26-3.46-6.23-8.53.75-3.74,5.09-6.37,10.51-6.3a11.28,11.28,0,0,1,5.1,1.19c.85.46,1,2.13,1.52,3.26-1.26.23-2.51.52-3.79.67a1.38,1.38,0,0,1-1-.62c-1.7-2.62-3.84-4.07-6-.86s.58,4.92,3.06,6.34c.59.34,1.22.63,1.84.93,3,1.44,6.3,3.45,4.95,7-1,2.49-3.89,5-6.5,5.91-2.89,1.06-6.45.67-9.65.27-1.2-.15-2.3-2-3.15-3.28-.15-.21,1.4-2.16,1.84-2a14.61,14.61,0,0,1,4.38,2.14C311.92,641.54,312.11,642.51,312.93,644.11Z" transform="translate(-23.64 -100.53)"/><path d="M345.2,268.55c.46,4.85,1.53,9.74,1.24,14.54-.68,11-2,22-3.11,32.91a22.63,22.63,0,0,1-.92,5.28c-.38,1.07-1.54,1.85-2.36,2.77-.45-1-1.29-2.08-1.28-3.1.05-2.89.42-5.77.73-8.65q2.36-21.76,4.74-43.54Z" transform="translate(-23.64 -100.53)"/><path d="M203.75,402.56c-2.4.7-3.91,1-5.29,1.55-5.72,2.38-9.93.32-14-3.84-7.43-7.53-11.86-16.54-14.47-26.61a78.29,78.29,0,0,1-2-9.31C173.25,383,183.26,397.12,203.75,402.56Z" transform="translate(-23.64 -100.53)"/><path d="M453.32,330.63c-11.53,4.45-14,3.88-22.11-5.69-7.31-8.69-10.51-19.22-12.67-30.21C424.45,311.82,433.8,325.57,453.32,330.63Z" transform="translate(-23.64 -100.53)"/><path d="M94,340.52c3.22,6.7,2.42,13.22,1.88,19.59-.89,10.72-2.15,21.41-3.44,32.09-.16,1.3-1.51,2.46-2.31,3.68-.54-1.24-1.66-2.53-1.54-3.71C90.28,375.17,92.13,358.18,94,340.52Z" transform="translate(-23.64 -100.53)"/><path d="M228.79,636.48l7.2-1.85c-2.62,4.35-10.39,6.47-13.65,3.59-1-.84-1.18-3.57-.58-4.93,2-4.5,4.48-8.75,6.86-13.26l-4.25-2,.09-.72h12.47c-3,6.22-6,12.19-8.87,18.16Z" transform="translate(-23.64 -100.53)"/><path d="M295.27,349.79c3.26,10.56,10,17.35,21.07,19.65-8.42,5-12.22,4.22-16.5-3.94-2.48-4.72-3.91-10-5.82-15Z" transform="translate(-23.64 -100.53)"/><path d="M69.44,441.77c-3.67,1.32-6.2,2.44-8.84,3.08a5.61,5.61,0,0,1-4.22-.51c-5.64-4.41-8.7-10.37-10.16-17.95C57,438.77,57.88,439.38,69.44,441.77Z" transform="translate(-23.64 -100.53)"/><path d="M241.63,608.33c-1.33.85-2.74,2.49-4,2.35-1.47-.17-2.77-1.83-4.14-2.85,1.16-1.09,2.25-3,3.51-3.08,1.43-.14,3,1.27,4.52,2Z" transform="translate(-23.64 -100.53)"/><path d="M98.46,477.11l-4.77,11.4-.83-.49.54,6.49-1,.31c-.65-.6-1.58-1.08-1.91-1.82-1.89-4.26-4.56-4.06-8.23-2.11-6.57,3.5-12.86,7.12-15.37,14.84l-1.31.2c-.56-2-2-4.25-1.5-5.82C65.42,496.2,67,491.9,69.79,489c7.45-7.67,17.47-10.41,27.49-12.76Z" transform="translate(-23.64 -100.53)"/><path d="M348.18,405.33c-.45,2-1,4-1.31,6-.43,2.86-2.19,4.09-4.78,5-4.78,1.74-9.85,3.23-14,6-4.41,3-7.88,7.37-12.44,11.81-.49-1.92-1.65-4.13-1.46-6.21.68-7.26,5.25-12.27,11.38-15.26,7-3.42,14.5-5.8,21.78-8.63Z" transform="translate(-23.64 -100.53)"/><path d="M461.34,279.79c-.48-1.23-1.33-2.44-1.37-3.68-.38-11.64,2.28-22.12,11.29-30.38,3.21-2.95,6.38-3.36,10.23-2,6.32,2.28,10,7.4,9.6,14.14a58.46,58.46,0,0,0-5.46-3.58c-4.77-2.43-8-2.55-12,1.21-5.76,5.41-8.62,12-10,19.49-.3,1.57-.63,3.13-1,4.69Z" transform="translate(-23.64 -100.53)"/><path d="M240.77,329.4c-.5-.13-.66-.13-.75-.21-10.15-8.61-15.5-5.75-22.29,5.37-3,4.92-4.1,11-6.25,17.14-.6-1.23-1.62-2.4-1.67-3.6-.51-11.81,2.09-22.55,11.4-30.71,4.09-3.58,7.59-3.65,12.87-.61S241.65,324.18,240.77,329.4Z" transform="translate(-23.64 -100.53)"/></svg>